<svg xmlns="http://www.w3.org/2000/svg" id="uuid-d52b8a09-3a85-42ca-b786-92d88e459e43" width="1020" height="1020">
  <defs>
    <style>
      .uuid-d76b8c74-4f9c-4f65-854c-bf9c488fac10{
        fill: oklch(0.3 0.0062 276.84);
        fill-rule:evenodd;
        stroke-width:0
      }
      .uuid-7ce476c6-d59b-4854-8fc6-a013499e1f92{
        fill: oklch(0.3 0.0062 276.84);
        stroke-width:0
      }
    </style>
  </defs>
  <g id="uuid-2b78184b-763d-4b22-b506-8af0d57ba378" data-name="fatal_wovnd_2024">
    <path d="m510 16.7-25 450h50l-25-450zM82.789 263.349 460 510l25-43.301-402.211-203.35zM82.788 756.65 485 553.301 460 510 82.788 756.65zM510 1003.3l25-450h-50l25 450z" class="uuid-7ce476c6-d59b-4854-8fc6-a013499e1f92"/>
    <path d="M824.543 606.598c50.934-25.27 89.284 4.908 92.579 40.175 3.295 35.27-28.466 75.631-79.402 100.902-37.242 19.708-95.577 22.818-140.22 20.365-12.882-42.814-23.576-100.245-13.178-141.078 12.585-55.45 44.346-95.81 79.402-100.901 35.054-5.09 73.403 25.089 60.819 80.537ZM937.21 756.65 560 510l-25 43.301 402.211 203.35Z" class="uuid-d76b8c74-4f9c-4f65-854c-bf9c488fac10"/>
    <path d="M937.212 263.35 535 466.699 560 510l377.212-246.65z" class="uuid-7ce476c6-d59b-4854-8fc6-a013499e1f92"/>
    <path d="M1020 510c0 281.665-228.335 510-510 510S0 791.665 0 510 228.335 0 510 0s510 228.335 510 510ZM510 20C239.38 20 20 239.38 20 510s219.38 490 490 490 490-219.38 490-490S780.62 20 510 20Z" class="uuid-7ce476c6-d59b-4854-8fc6-a013499e1f92"/>
  </g>
</svg>
