<?xml version="1.0" encoding="UTF-8"?>
<svg id="tlp-grind" data-name="tlp-handwritten-grind" xmlns="http://www.w3.org/2000/svg" width="186.8983534mm" height="100.6291111mm" viewBox="0 0 529.790616 285.2478782">
  <defs>
    <filter id="displacement-01">
      <feTurbulence
        type="fractalNoise"
        baseFrequency="0.05"
        numOctaves="3"
        result="noise" 
      />
      <feDisplacementMap
        in2="noise"
        in="SourceGraphic"
        scale="6"
      />
    </filter>
        <filter id="displacement-02">
      <feTurbulence
        type="turbulence"
        baseFrequency="0.08"
        numOctaves="2"
        result="noise" 
      />
      <feDisplacementMap
        in2="noise"
        in="SourceGraphic"
        scale="4"
      />
    </filter>
    <filter id="displacement-03">
      <feTurbulence
        type="fractalNoise"
        baseFrequency="0.12"
        numOctaves="3"
        result="noise" 
      />
      <feDisplacementMap
        in2="noise"
        in="SourceGraphic"
        scale="4"
      />
    </filter>
    <style>
      .tlp-grind {
        fill: #212121;
        stroke-width: 0px;
        will-change: filter;
        @media (prefers-reduced-motion: no-preference) {
          animation:
            displacement 0.5s linear infinite;
        }
      }
      @keyframes displacement {
        0% {
          filter: url(#displacement-01);
        }
        50% {
          filter: url(#displacement-03);
        }
        100% {
          filter: url(#displacement-02);
        }
      }
    </style>
  </defs>
  <path class="tlp-grind" d="M126.5077662,201.3891133c5.7936961,1.5941911,5.2998538,4.1823056,9.084888,7.2608578,1.0198975.4547729,5.1850367,5.1597738,5.928628,5.8370199,7.1172238,3.3646871,11.8281128,5.3456157,20.0896856,7.0957299,2.7388398.295596,6.5052935,2.9619374,8.9821611,2.2455678-.2164307-.8699341-2.1545885-3.2461277-3.2593248-3.517551-3.619873-2.1613159-4.7071533-6.932373-8.3308716-9.3201294-2.4121704-1.5305176-5.0767619-3.9574382-7.1459147-5.8823039-6.6086951-5.5144383-14.8396885-10.0499828-20.5926623-17.1204369-2.7369866-5.4554986,2.2565747-13.3671267,2.5922688-19.0044257-.05093-5.881557.7575422-12.222454,3.3868044-16.4133599,2.5589359-4.0788095,9.9929339-7.5683508,15.7080144-7.2534442,1.8411255,4.2177124-2.3827148,13.5088704-.5805908,17.9736532,3.0324707,6.1509399,1.0900879,13.3126831,2.257019,19.715271,1.4188499,7.3182845,3.6274229,14.1514675,2.2341309,22.3720703,10.5301176-.8064903,8.0140223-13.4604088,10.7293206-21.5439794.6128916-2.2965306,1.0990282-1.6420151.0220222-7.2110866-2.2763939-11.7709653,1.1217041-23.7202148-3.1304321-35.4072876,6.8834839-8.1924438,18.5350342-10.0540771,27.6369019-15.0871582-1.7605591,17.9103394,3.3266602,35.4766235,5.6565552,53.0376587,1.7663574,8.510437-2.1494751,16.9199219-1.3418579,25.5483398-.0068359,2.0645752,1.1026611,4.3440552-1.2786865,5.9343872.8049316.7607422,1.3762817.5325928,1.9820557-.1098633,3.0828247-4.3031006,9.1204224-4.5046997,12.4846802-8.1796875,17.463332-8.7537664,36.2853815-15.2134501,54.9010783-21.7421136,2.1481031-1.1337578,7.9737614,5.8238814,9.6749836,6.6648869,1.7496463,1.5173036,5.0579713,4.9718258,5.4500612,7.5210201,4.3813477,1.9783325.6529541-13.3720161-.3396606-15.6706611.0196698-4.7575789,4.9140822-8.9158577,9.3592522-10.0705745,3.0915196-.5365422,2.035964-.9809867.0131233-1.8180974-1.2459161-.5155966-1.824354-1.5036213-3.4060059-2.0557861-2.2585328-.6349368-8.8840308,2.2294344-9.5294868-.4982627-2.8888889-11.3333333-5.4444167-22.812625-4.7886793-36.4444444-.9491176-10.8662658.6921712-22.4826111,1.4553459-31.3333333-.4542859-5.779313,19.008002-6.5963863,24.0237787-9.1737706l.4120713.1756176c-1.0818343,11.6405911,1.9861121,23.1268262,2.4333788,34.4629142-1.009844,13.0870258,1.7561192,27.5653872,2.2465594,40.703296-1.1940475,9.8543072,8.4037042,15.3348817,16.0929978,18.796398,4.3651548,3.1055306,7.4173398,7.9102181,12.9824033,9.0266121,1.9317017,1.1710205-1.1176758,6.5908813-1.1937256,8.7458496-1.0743951,5.0477873-1.9991095,10.0886467-4.2082521,14.8777626l.3223861.249503c26.1751253-21.5651918,3.2853461-28.3649675,34.9302995-17.2415845,2.1082153-2.8324585-2.0271606-6.8536987-3.1707764-9.6380005-.8161011-2.3242798-3.1113892-3.8059692-5.2894287-4.84375-14.9946289-5.4669189-1.1372477-19.4024658,1.1592407-29.1328125,1.3088456-5.54565,4.9938648-11.0340848,7.4202271-16.619873,2.3208244-5.3428269,1.9487644-10.8517795,5.4638401-14.2492405,1.9051333,1.6231631,7.6615681,3.571446,10.0541823,4.3058938,5.9458177,1.1385507,5.6685621,2.7346064,8.6793653,3.5709712.3431516,7.0810536,2.1374641,14.3007162,3.1083328,21.2156572.2692306,6.4652713,4.3803418,11.2708269,4.852564,18.8241445,3.0445113,12.7286153,5.4969444,23.5223811,9.4730808,34.5534298,2.4869371,7.9347005.6216885,21.5295856,1.9191762,32.4616001.142257.0405697-1.38256,14.5137711-1.240303,14.5543408,6.4662003-8.4647703,6.6509235-19.3449938,8.1097445-29.45219,2.4878235,8.8945848,2.9828504,15.6607184,13.510376,14.3359985-5.0523854-4.249747-6.4843268-12.7073508-7.5218842-18.7032512-3.8995455-7.8234697-3.8535909-20.8060613-2.1745704-29.5336506,2.8084541-8.3604493.8025947-17.0862184,3.2952094-25.6222902,4.4353027,1.3204346,4.8902164,5.229603,8.3366089,8.8310547l7.369751,5.6853638c6.0837525,7.7925023,12.65354,8.6647455,18.1736848,17.3354994-9.8665966,18.649825-24.5157679,38.0142199-33.2199495,57.2702135-5.3643475,11.8673811-10.5797729,17.6424561-18.7470093,23.7922363-1.09375.2807007-6.3361003,7.5570746-6.1589152,8.7723456,1.8296509-1.010376,13.5905016-7.9368002,15.4662951-8.7807334,2.6640605-2.0661681,6.2297363-6.2064068,7.644816-7.6666667,7.3212249-7.5549744,7.3212249-10.6884323,13.8023207-20.4655095,11.4204435-15.5847134,18.0287289-29.180952,29.5865682-44.6849976,3.09741,4.8243671,11.744467,15.4485929,17.8333021,19.0000628,2.3068912,1.1323604,21.6418566,18.6786278,24.6666979,17.6666039-6.2840196-9.4661593-33.061998-32.5223862-34.2987706-47.7461328,8.5589228-13.2283341,17.4056838-24.0540787,26.9357742-36.6358659,3.8826294-6.1850586,6.2347412-11.690918,14.2772827-7.2407837,22.5227661,12.5097046-2.6439006-13.9866333,1.1497192-15.0681152,6.6842651-7.2207642,14.2875977-37.6570435-1.5547485-15.942627-2.1555379,3.6907756-2.7260132,10.1991577-5.6876221,7.4433594-11.4937134-10.5968018-28.2615153-18.2352797-41.6966349-25.9343154,4.1538086-2.1926066,9.1663418-3.272663,12.8493945-6.5640849,2.2227287-1.2367071,9.1031247-8.5396942,12.1506055-9.744228,11.962938-8.4821128,26.076452-12.9921681,33.7319014-26.4494508,1.6671871-2.3953232,4.4917721-4.2211899,5.6301388-6.915892.2490005-2.3241267,2.5160617-2.7692051,3.446558-4.5739266l-.265259-.3162155c-16.619497,3.9513142-28.9833847,15.9233775-42.1228273,26.1046807-6.728358,5.2831064-14.3172301,8.8540294-20.5075083,14.8410672l-.3184818-.2274331c5.1617286-11.0482977,5.5001272-26.9959209,7.2804783-38.7227039-2.7967529,1.7990723-3.4832932,4.2919424-3.7844442,6.1460571-6.5136379,14.8117085-14.0793068,26.8593131-23.8822225,39.9216105-7.2313927,9.635766-16.9436145,20.0916597-21.8440348,31.2368978,1.175293-11.3436279,5.3713989-22.59021,5.0583496-34.2747192-.8707886-6.3053589,4.3499146-11.7445068,2.5987549-18.0509644-1.0845947-3.4783325,1.5057373-7.0706177,1.4100342-10.668396-.5639905-11.742246-.8812857-40.4206543-3.5564372-53.8006444-4.3413086,9.3965454-3.461128,18.3076914-6.5098093,35.1035716-1.3425293,4.4505615,1.0408558,21.2776393-1.1962657,25.9028834-5.3939819,12.5391235-6.7531128,26.336731-8.1306763,39.7089844-.9066772,10.642334-5.6449585,21.034668-2.0740356,31.5898437-5.2035193-5.4609215-6.9781019-10.3446791-14.6886597-13.4989624.628479-11.4747925-12.4986309-34.1649631-8.6088867-42.9151611,5.134196-11.5496623,6.2895544-8.7696403,11.505249-21.7330322,3.6614176-9.1003011,12.3225505-41.2486425,15.0364176-50.1581273-3.7349497,3.8532415-10.0228841,15.2498672-14.5080017,23.2351072-3.2350254,5.7595937-6.0523895,11.305166-7.5680962,14.7774786-1.931783,4.4254964-5.5896533,16.2443575-8.9931567,19.208896-1.7868594-11.7973685-7.2687765-27.0070561-13.4305951-37.9152527-2.8195948-3.1372918-2.3536457-6.1038513-4.5388874-8.5341491-2.4946899-1.7946167-5.1969198-12.9599258-6.961263-15.4387466-.1605835.0802002-.6527778,4.6133818.4920858,9.0703995.7977295,2.5477905.02771,5.3192139.47229,7.8640137.5164185,2.2334595.2315451,4.3117414.6921997,6.7313843.8573134,4.5031399,3.3970337,6.1255493,2.3272705,10.5927124-10.0820923,4.626709-7.8442044,1.9277276-17.6366238,7.0215386.0593262-.2522583-12.4713723,6.1343452-12.416929,5.9027778-2.5193385,1.4138543-19.2793798,11.2893397-20.9161548,11.175577-1.7084164.5238348-3.5849202,3.6718106-5.3474718,3.0466452-2.9860582-1.4971616-5.3730804-7.3659998-7.5418256-10.099375.0001589-.0000852-11.6558876-12.0012042-11.6558876-12.0012042-3.1302645-2.2531204-2.5106201-.7466431-4.6887625-3.498881-3.0121265-2.6227186-9.3507327-9.2842783-12.0801821-12.3905439-2.9240517-2.7994535-3.7860365-9.8351607-5.7971292-14.3803294-.5181546-1.0749722-.6598308-6.4462829-1.8751018-6.9907776-.9867554,1.3695679-.2809923,5.6642795-.8243273,7.2099948-.9362952,1.4704719-.6536204,5.8800862-.9750977,8.7107544-.6853027-.24646-1.6105957.668335-2.1362305-.461792-3.5680542-2.0379639-6.4121094-4.2449341-10.8425293-3.3509521,2.4568481-6.0671997,4.3881836-13.8790283,3.8516846-20.4813232-.8111572-.5072632-1.2579346.4995117-1.3834839,1.1844482-.8371582,4.4545898-5.4795532,5.5498657-7.7441406,8.9453125-10.4456177,12.7808228-3.616333,11.588562-9.1679077,23.6634521-.9406036,4.294712-3.9965685,21.6964705-6.1979856,25.248431-.8330813,5.8788044-1.5830813,1.7599919-3.3640872,7.6598942-2.1812688,9.5888461-4.0131502,19.0692162-7.1702224,28.3469742-.5697045,2.6807416-6.8686021,4.8386425-8.7444006,6.2665314l-.428527-.225342c-2.4641933-21.9534392-9.2314341-25.4627469-5.4838153-91.6077071-.0045166-1.661377.2546173-9.7815012-.481955-9.1798167.095459.0488892-1.8927398,9.4538035-1.7972808,9.5026927-1.4060669,9.116394-.4757318,3.4126447-2.9708049,13.571167.2965088-.1185303-3.0275472,10.8804728-2.8333333,10.8028361-2.5162609,13.2288082-3.6990074,25.7397062-2.399098,38.8643708,2.5455824,9.4601735.2298737,16.7985314,3.45287,26.4892872.0922241,2.5454712-.1648831,4.646342-2.2342529,7.178894-6.8266239,2.4575344-13.5953167,4.1444354-19.1717994,7.5717888-3.855306,1.5983868-7.3136132,5.3768196-9.3363183,4.2726326-2.0565732-8.8715245.7793611-15.2329309-.8060458-24.0084508-.1661871-.1755714-.6644759-7.4670083-1.3386889-8.5351893-2.216332-6.3321537-.2471479-19.5029793-.2471479-19.5029793.4360721-10.8755607.2660282-21.6430778-1.2617428-32.5509147.0494521-2.2035945.2734375-2.1903076-1.0975342-3.5783081-1.6685791-1.2807007.284668-4.5714722-1.932251-4.902771-2.6407151,10.3230317-4.5290413,23.4627706-7.6275527,33.6184227-1.879053,4.8897284.4375039,14.0888028.5697014,19.7388831.0424576,2.2462195-2.0656105,5.6000733-3.7155641,10.6776674-2.7374947,11.6321544-5.5600768,16.5699438-11.8556781,4.3722363.0001873.0005665-5.7947346-8.2751904-5.7947346-8.2751904-1.0380784-3.0144858-7.4967591-13.3041719-9.871129-16.7636072-.8258111-1.8353105-8.4266412-6.3867224-6.3330336-12.0001054-.5102743-9.636617,5.8381551-13.2019246,7.8286336-21.3941243-.2763062-2.2029419,1.7206063-1.5706863,1.8653564-4.5712891.1656073-3.4329615,3.3552498-10.0827306,1.3552498-11.5827306-2.0697118-1.5522838-3.3193611,8.0558141-4.7417855,9.8667882-3.2113647,5.2784424-3.0649425,4.6450938-6.3704845,10.4713267-.1030273-.0584106-3.6468181,3.2238297-3.7498455,3.165419-6.8179201,9.4079059-1.593038,10.5108821-11.52106-1.6220311.0006022-.0000255-3.1914065-6.7697221-4.8957612-8.7100546-1.7167883-1.9544876-11.2197392-11.0399223-10.5705149-5.5265228,2.6204834,1.7244263,2.2710571,5.250061,3.8498535,7.5979004,3.0030821,4.5393597,2.7477583,9.0893453,6.870181,13.179796,4.4589064,6.1238614,4.2642151,5.0337931,4.7468437,11.3217298.2320559,3.0233451-3.9227091,6.6503296-4.6666667,9.470459-.4483643,5.68573-2.5981852,9.2637939-5.0540568,13.8242798-1.5274658,3.8881836-5.5079346,2.2180176-8.6516724,2.0667725-9.6210327.34729-19.0289307,2.5201416-28.4475098,4.7111206-1.1557007-4.4181519,1.5059814-9.7843628,1.7911987-14.4286499-.519165-12.6446533-.4243774-19.7376099.9250488-32.199707.162351-11.806535,3.4354507-25.3210045,1.7457024-36.054528-4.9163567-4.5049813-4.3338478,17.6778445-9.5928045,22.7825681-1.6832236,5.9444914-4.7838037,11.9398742-4.9166667,13.6666667-.2853959,3.7092298.83895,5.0016622.5833333,9.6666667-.3333333,6.0833333-1.1282334,5.4638639-1.25,8.5833333-.8205176,11.3475917-4.277715,20.7501875-3.3193756,32.4247245.5996747,5.7135113-4.2415356,3.7305159-9.4082023,8.1471826l-9.25,6.75C10.5632068,117.1134242,9.3453466,121.6499711.0120132,126.3093339c-.3534546,3.6646118,7.1953921-1.9590081,9.0843691-1.9736565,3.8699027-1.8795183-2.2934989,1.1813633,5.8322975-2.4119433,3.3140445-4.2612259-.9166667-1.5078328,5.8109112-6.321907,5.4214613-4.3200612,10.2956693-3.768375,17.2863111-5.576856-.8333333,2.4744602-1.0019735,8.9068468-.8333333,8.8588732-.0596313,6.027832,1.6465047,4.0664808,2.4301961,10.2361586.8973389,4.2001343,1.7610067,11.4936795,1.7364705,15.9305081l2.1666667,18.1666667c-.005249,12.1349487,4.199117,18.9638401,5.8333333,30.9744602.758667,8.1428833,8.0875041,16.6790365,10.740214,24.2213338.4140625,5.5894775,3.7105103,9.6314697,6.8318481,14.2235718,12.0510254,17.7293701,25.0760498,36.1918335,43.8586426,46.4751587,5.0119629,1.6342773,10.3268433,7.9436646,15.6931763,5.6334839-13.7236678-3.9094116-17.5888564-14.9317729-23.8960371-23.1297046-12.0618831-18.5438903-23.9763154-43.4657099-34.9199419-62.0142163-.989502-12.1003418-8.5164795-22.9443359-9.6995239-34.7868652,9.8693237-9.4979248,12.7141113-23.2467041,19.222168-34.8734741,4.6514893,5.5378418,9.2944539,16.6257121,15.2385254,24.4041138,6.8059285,5.638265,9.0023362,10.836746,12.7620443,15.8049316,4.6666667,6.1666667,1.1093887,2.3499115,4.5833333,8,2.4910995,4.140436,3.5629186,6.7162597,3.75,8.8750008.1122491,1.2952473,4.8821185,7.7548974,3,10.2916659-4.7658608,12.9988142-11.4403529,17.4298115-10,34.6666667,10.3904044-3.9041871,11.2494371-29.7705498,19.9840817-30.5941911ZM60.013993,104.5065985c1.4130202,4.1596586,3.1927093,3.287175,3.975598,7.5118952.1346436.0457153,2.8836974,5.4658314,3.0873717,5.4778553.7902317,2.2248535,3.0517608,4.9048373,1.5102864,6.1376916-3.9820484,13.4886385-2.3941759,15.9517281-13.0439521,27.1442264-1.6588135-.1896973-2.8111572-18.8014526-2.3607788-19.7554932.6343384-7.8047485-3.963562-26.5362549,5.5061646-29.182373l1.3253101,2.6661978ZM84.2342355,91.4277489c-.4862671,1.9522705-3.1266833,3.9295077-4.4166667,5.6805556-1.7525723,3.2844077-4.042125,7.3727961-5.0952213,10.5155843-.2844849.3638916-2.2273495-2.5409953-2.2797787-2.4739176-2.5796957-2.3432094-4.8534878-3.7881941-6.184672-7.1978149,4.7743257-3.4314177,9.429051-5.1163841,14.9557617-6.795476-.0004394-.0009107,3.020577.2710688,3.020577.2710688ZM135.5926542,122.6527072c-7.3824725,21.2636708-9.3279594,36.2809066-13.0689697,54.3305972-1.6870524-3.0155843-9.3676351-16.0294596-11.3333333-20.3333333l-9.3333333-10.1034996c-4.355722-6.1513055-12.451718-24.4738872-18-28.9455727-.5016545-.157954.1539819-1.2664038.3772176-1.6175944,3.3319277-2.9429705,2.8079631-7.7976888,5.6044718-11.0712484,1.9603882-2.1887207,3.2619019-4.7149048,4.7393188-7.1495361,3.7250366-7.4508667,6.1504157-20.5171902,9.2789917-28.4458822,4-10.1371257,10.5186046,8.6758763,11.7693126,12.6133726,5.365021,6.78364,7.5630683,10.2646845,12.2306874,17.475596,4.0645922,7.3122376,11.4811691,13.481113,7.7356364,23.2471008ZM141.5236845,137.6499711c-.1125488-.09021,3.7675781-7.1646729,3.6550293-7.2548828,1.6330122-3.9610473,1.0119436-11.7724649,3.3980085-15.4119689.6354004-.4375591,2.541404-8.1540452,3.2802956-8.6274338,2.3958456,6.7371654,2.2362136,13.6640477,1.0944254,22.2942856l-11.4277587,9ZM231.5819731,93.5206986c4.8453369-10.421875,2.9991455-22.5651245,7.6359863-33.0287476,4.2740479-8.4858398,7.6390991-18.5716553,7.9470825-27.9554443-.6413574-5.8865356.8675537-6.3587646,1.1525269-9.0227051,1.1318157,1.6840354,2.6851074,2.8493682,2.4349634,5.0091289.9831151,3.556557,6.7546749,3.9712173,8.3285253,7.38998-.0235596.0180664.243476.1076999.2204047.1259494.2787476.3173828.247918.5835843.4462212.9573636-1.9359584,19.8129173.4340871,30.861548-.4883065,49.4815736-7.8225676,2.3423711-19.1647948,6.0480287-26.6907097,8.3674254-.3172339-.1078097-.8163178-1.0682744-.9866943-1.3245239ZM207.7714262,178.1510697c-.4978638-18.9321289-.6488037-37.824707-2.1553345-56.7143555,1.8920536-4.5810983,8.4710309-8.4172467,12.6855606-8.3427976-9.2312065,20.7467638-6.8908102,43.6477242-8.8196345,65.7643877-.1033936-.0029297-1.7299398,8.1695964-1.8333333,8.1666667l.1227417-8.8739014ZM217.7703276,168.0083695c2.1289673-4.529541,1.6360254-11.0275567,3.0622834-18.1496535,1.6117943-8.0485822-1.5865754-12.9583787,3.0600311-20.3551683,1.3991699-4.4688721,1.0573934-14.4376831,2.9643758-18.8535767,5.4032593-6.895874,12.1809423-5.5925397,22.1736857-8.1699219,3.6781134-.9486788,7.8297119-4.9942627,11.2042847-2.3309937-2.1202515,21.616668-.2179525,46.0479271,4.4692518,66.5981377-13.9083252,10.5285645-31.7926161,9.7223172-46.9339125,17.6111111.2063571-3.5303239.1205893-12.6778253,0-16.3499349ZM283.4125734,77.2333044c-1.7183213,1.0949435-9.0506855,3.5356453-11.9722222,4.8333333-.2390747-11.1677246-.7951457-22.8179728-.25413-33.8741862,4.1134597,4.3838368,8.753025,8.5498484,11.9987538,11.8757172,4.2286032,4.3233426,10.2930669,7.4057691,11.8225963,13.692337-2.4765174.1753654-9.0292502,2.9246928-11.5949978,3.4727987ZM314.4820179,87.7624589c2.1744122-1.4640536,11.9555027,10.3134975,13.4861111,11.4296983,3.5416667,2.582771,7.2633124,3.4652399,10.7777778,5.1244806,5.8632398,4.2216055,7.8045402,6.2165308,14.3238045,8.8474386,1.6594765.9590253,2.8620181,3.9194519,1.4060146,5.5142393-4.3144289,4.9169868-8.9244673,10.3186531-10.2166591,16.7286155-1.1470033,12.4869363-8.5721132,23.2115457-8.7664491,36.0685403-.1673585,2.2605679-1.2223991,1.8920417-3.5532227.6274414-1.6795993-.9112752-3.5854804-.9986624-4.7253457-2.35193-3.2320314-3.837123-7.0221327-4.0564177-9.2623657-7.7781622l-3.2412315-3.1134991c-4.0987116-21.9130195-4.0359462-48.0305236-2.6065063-71.0968628h2.3780721ZM316.1903512,76.9833044c1.6400146-5.0905151,11.2431844-6.6971029,14.8006795-9.8540853,5.3167725-4.7159424,12.2999878-6.9264526,18.1121216-10.9054565,4.287904-2.294311,13.5372334-5.8169463,16.7271729-9.5997925,3.0295764,3.4254122,2.647098,7.6791887,2.4218773,12.0031355,2.146299,7.740761,2.9024636,16.0553362,4.9713112,23.9585344-16.3214722,17.6242065-4.6470947,26.3927612-21.9979248,13.9994507-6.6354189-3.8224299-20.0626744-12.5361297-26.8761417-17.5419905-.0003232.0007511-8.159096-2.0597958-8.159096-2.0597958ZM373.4284086,110.1062089c.1576538-.1124268.5209554-3.0371686.6786092-3.1495954,1.5655696-5.9351309,1.5985927-9.4380456,4.9305556-14.2649757.5007907,2.6261604,1.4437803,9.1327818,2.2596916,11.5471142,1.468692,6.0181032,4.4473668,10.2608285,3.8481236,15.7809813-3.1881828-.0968304-4.2474762-3.1252168-6.4134184-4.6358369-1.8617078-.8376375-2.1943969-2.6922586-4.6368746-4.1943745l-.666687-1.083313ZM398.4477286,153.5020576c-.5019265-2.9648905-2.4040407-12.5785369-2.5907108-16.2965309-.1931463-3.8469825,2.0842547-.2184461,7,6,5.0624968,4.7268511,5.2527105,2.4944334,6.3333333,5.2086631,1.1361655,4.3755646-5.2877739,9.535069-8.6612956,12.7893702l-2.081327-7.7015024ZM411.9873735,159.8934937c-3.1932973,9.983-1.7091624,20.3621469-4.5503589,30.2987747-4.8061266-5.5515149-4.1104458-13.6024481-5.9389648-20.342041,5.1599133-1.6045689,7.0457922-6.4190364,10.4893237-9.9567337ZM458.9745512,114.736702c.0018311-.0009766.0031738-.0010986.0050049-.0020752,6.5602036,4.0704761,8.2176971,3.9935024,12.2694664,7.0139808,5.7912086,7.8112383,15.8201576,10.1047526,21.4553871,18.0784264-6.5980225,2.3890381-8.2406006,8.3626099-11.9754028,13.5471191-7.9366455,9.2397461-18.2038574,16.9837036-21.3303223,29.3537598-.5969849,1.5545044-1.2056274,1.7689819-2.2704468.5534668-11.5040806-8.4840498-22.7241359-23.5632914-31.7709385-34.1942676-.9928554-1.2855908-1.4619106-2.794685-.6635707-4.7857129,8.6839756-11.4831898,14.7254968-25.2163895,25.3530884-35.2717896l8.9277344,5.7070923Z"/>
</svg>