<?xml version="1.0" encoding="UTF-8"?>
<svg id="tlp-grind" data-name="tlp-grind" xmlns="http://www.w3.org/2000/svg" width="186.8983534mm" height="100.6291111mm" viewBox="0 0 529.790616 285.2478782">
  <defs>
    <filter id="displacement">
      <feTurbulence
        type="fractalNoise"
        baseFrequency="0.05"
        numOctaves="1"
        result="noise" 
      >
        <animate
          attributeName="baseFrequency"
          values="0.02; 0.06;"
          calcMode="discrete"
          dur="400ms"
          repeatCount="indefinite"
        />
      </feTurbulence>
      <feDisplacementMap
        in2="noise"
        in="SourceGraphic"
        scale="8"
      />
    </filter>
    <style>
      .tlp-grind {
        fill:oklch(0.3 0.0062 276.84);
        stroke-width: 0px;
        filter: url(#displacement);
        will-change: filter;
      }
    </style>
  </defs>
<path d="M126.508 201.39c5.793 1.593 5.3 4.181 9.085 7.26 1.02.455 5.185 5.16 5.928 5.837 7.118 3.365 11.828 5.346 20.09 7.096 2.739.295 6.505 2.962 8.982 2.245-.216-.87-2.154-3.246-3.26-3.517-3.62-2.162-4.706-6.933-8.33-9.32-2.412-1.53-5.077-3.958-7.146-5.883-6.609-5.514-14.84-10.05-20.593-17.12-2.737-5.456 2.257-13.367 2.593-19.005-.051-5.881.757-12.222 3.386-16.413 2.56-4.079 9.993-7.568 15.708-7.253 1.842 4.217-2.382 13.509-.58 17.973 3.032 6.151 1.09 13.313 2.257 19.716 1.419 7.318 3.627 14.151 2.234 22.372 10.53-.807 8.014-13.46 10.73-21.544.612-2.297 1.098-1.642.021-7.211-2.276-11.771 1.122-23.72-3.13-35.408 6.883-8.192 18.535-10.054 27.637-15.087-1.76 17.91 3.326 35.477 5.656 53.038 1.767 8.51-2.15 16.92-1.341 25.548-.007 2.065 1.102 4.344-1.28 5.935.806.76 1.377.532 1.983-.11 3.083-4.303 9.12-4.505 12.485-8.18 17.463-8.754 36.285-15.213 54.9-21.742 2.149-1.134 7.974 5.824 9.676 6.665 1.75 1.517 5.058 4.972 5.45 7.52 4.381 1.98.653-13.371-.34-15.67.02-4.757 4.914-8.916 9.36-10.07 3.09-.537 2.035-.981.012-1.819-1.246-.515-1.824-1.503-3.406-2.055-2.258-.635-8.884 2.23-9.53-.499-2.888-11.333-5.444-22.812-4.788-36.444-.949-10.866.692-22.483 1.456-31.333-.455-5.78 19.008-6.597 24.023-9.174l.412.175c-1.081 11.641 1.987 23.127 2.434 34.463-1.01 13.087 1.756 27.566 2.246 40.704-1.194 9.854 8.404 15.335 16.093 18.796 4.366 3.106 7.418 7.91 12.983 9.027 1.931 1.17-1.118 6.59-1.194 8.746-1.074 5.047-2 10.088-4.208 14.877l.322.25c26.175-21.565 3.286-28.365 34.93-17.242 2.109-2.832-2.027-6.854-3.17-9.638-.816-2.324-3.112-3.806-5.29-4.844-14.994-5.466-1.137-19.402 1.16-29.132 1.308-5.546 4.993-11.034 7.42-16.62 2.32-5.343 1.948-10.852 5.464-14.25 1.905 1.624 7.661 3.572 10.054 4.306 5.946 1.139 5.668 2.735 8.68 3.571.342 7.081 2.137 14.301 3.107 21.216.27 6.465 4.38 11.27 4.853 18.824 3.045 12.729 5.497 23.523 9.473 34.554 2.487 7.934.622 21.53 1.92 32.461.142.04-1.383 14.514-1.241 14.555 6.466-8.465 6.65-19.345 8.11-29.453 2.488 8.895 2.983 15.661 13.51 14.336-5.052-4.25-6.484-12.707-7.522-18.703-3.9-7.823-3.853-20.806-2.174-29.534 2.808-8.36.802-17.086 3.295-25.622 4.435 1.32 4.89 5.23 8.336 8.831l7.37 5.686c6.084 7.792 12.654 8.664 18.174 17.335-9.867 18.65-24.516 38.014-33.22 57.27-5.364 11.868-10.58 17.643-18.747 23.793-1.094.28-6.336 7.557-6.159 8.772 1.83-1.01 13.59-7.937 15.466-8.78 2.664-2.067 6.23-6.207 7.645-7.668 7.321-7.554 7.321-10.688 13.802-20.465 11.42-15.585 18.03-29.181 29.587-44.685 3.097 4.824 11.744 15.449 17.833 19 2.307 1.132 21.642 18.679 24.667 17.667-6.284-9.467-33.062-32.523-34.299-47.746 8.56-13.229 17.406-24.055 26.936-36.636 3.883-6.185 6.235-11.691 14.277-7.241 22.523 12.51-2.644-13.987 1.15-15.068 6.684-7.221 14.288-37.657-1.555-15.943-2.155 3.69-2.726 10.2-5.687 7.443-11.494-10.596-28.262-18.235-41.697-25.934 4.154-2.192 9.166-3.273 12.85-6.564 2.222-1.237 9.103-8.54 12.15-9.744 11.963-8.482 26.076-12.992 33.732-26.45 1.667-2.395 4.492-4.22 5.63-6.915.25-2.325 2.516-2.77 3.447-4.574l-.266-.317c-16.62 3.952-28.983 15.924-42.122 26.105-6.729 5.283-14.318 8.854-20.508 14.841l-.318-.227c5.161-11.049 5.5-26.996 7.28-38.723-2.797 1.799-3.483 4.292-3.784 6.146-6.514 14.812-14.08 26.86-23.883 39.922-7.231 9.635-16.943 20.091-21.844 31.237 1.176-11.344 5.372-22.59 5.059-34.275-.871-6.306 4.35-11.745 2.598-18.051-1.084-3.478 1.506-7.07 1.41-10.669-.564-11.742-.88-40.42-3.556-53.8-4.341 9.396-3.461 18.308-6.51 35.103-1.342 4.45 1.041 21.278-1.196 25.903-5.394 12.54-6.753 26.337-8.13 39.71-.907 10.642-5.646 21.034-2.075 31.59-5.203-5.462-6.978-10.346-14.688-13.5.628-11.475-12.5-34.165-8.61-42.915 5.135-11.55 6.29-8.77 11.506-21.733 3.661-9.1 12.322-41.249 15.036-50.158-3.735 3.853-10.023 15.25-14.508 23.235-3.235 5.76-6.052 11.305-7.568 14.777-1.932 4.426-5.59 16.245-8.993 19.21-1.787-11.798-7.269-27.008-13.43-37.916-2.82-3.137-2.354-6.104-4.54-8.534-2.494-1.795-5.196-12.96-6.96-15.439-.161.08-.653 4.614.491 9.07.798 2.548.028 5.32.473 7.865.516 2.233.231 4.311.692 6.73.857 4.504 3.397 6.126 2.327 10.594-10.082 4.626-7.844 1.927-17.636 7.021.059-.252-12.472 6.135-12.417 5.903-2.52 1.414-19.28 11.29-20.917 11.176-1.708.523-3.584 3.671-5.347 3.046-2.986-1.497-5.373-7.366-7.542-10.1l-11.656-12c-3.13-2.254-2.51-.747-4.688-3.5-3.013-2.622-9.351-9.284-12.08-12.39-2.925-2.8-3.787-9.835-5.798-14.38-.518-1.075-.66-6.446-1.875-6.99-.987 1.369-.28 5.663-.824 7.21-.936 1.47-.654 5.88-.975 8.71-.686-.247-1.61.668-2.137-.462-3.568-2.038-6.412-4.245-10.842-3.35 2.457-6.068 4.388-13.88 3.852-20.482-.812-.507-1.258.5-1.384 1.184-.837 4.455-5.48 5.55-7.744 8.946-10.446 12.78-3.616 11.588-9.168 23.663-.94 4.295-3.996 21.696-6.198 25.248-.833 5.88-1.583 1.76-3.364 7.66-2.181 9.59-4.013 19.07-7.17 28.347-.57 2.681-6.869 4.839-8.745 6.267l-.428-.226c-2.464-21.953-9.232-25.462-5.484-91.607-.004-1.662.255-9.782-.482-9.18.096.049-1.893 9.454-1.797 9.503-1.406 9.116-.476 3.412-2.971 13.57.297-.118-3.028 10.881-2.833 10.804-2.517 13.228-3.7 25.74-2.4 38.864 2.546 9.46.23 16.799 3.453 26.49.093 2.545-.164 4.646-2.234 7.178-6.826 2.458-13.595 4.145-19.172 7.572-3.855 1.598-7.313 5.377-9.336 4.273-2.056-8.872.78-15.233-.806-24.009-.166-.175-.664-7.467-1.339-8.535-2.216-6.332-.247-19.503-.247-19.503.436-10.876.266-21.643-1.262-32.55.05-2.205.274-2.191-1.097-3.58-1.669-1.28.285-4.57-1.932-4.902-2.641 10.323-4.53 23.463-7.628 33.618-1.879 4.89.438 14.09.57 19.74.042 2.246-2.066 5.6-3.716 10.677-2.737 11.632-5.56 16.57-11.855 4.372l-5.795-8.275c-1.038-3.014-7.497-13.304-9.871-16.764-.826-1.835-8.427-6.386-6.333-12-.51-9.636 5.838-13.202 7.828-21.394-.276-2.203 1.72-1.57 1.866-4.571.165-3.433 3.355-10.083 1.355-11.583-2.07-1.552-3.32 8.056-4.742 9.867-3.211 5.278-3.065 4.645-6.37 10.471-.103-.058-3.647 3.224-3.75 3.166-6.818 9.408-1.593 10.51-11.521-1.622 0 0-3.192-6.77-4.896-8.71-1.717-1.955-11.22-11.04-10.57-5.527 2.62 1.725 2.27 5.25 3.85 7.598 3.002 4.54 2.747 9.09 6.87 13.18 4.458 6.124 4.264 5.034 4.746 11.322.232 3.023-3.922 6.65-4.666 9.47-.449 5.686-2.599 9.264-5.054 13.824-1.528 3.888-5.508 2.218-8.652 2.067-9.621.347-19.029 2.52-28.448 4.711-1.155-4.418 1.506-9.784 1.792-14.429-.52-12.644-.425-19.737.925-32.2.162-11.806 3.435-25.32 1.745-36.054-4.916-4.505-4.333 17.678-9.592 22.783-1.684 5.944-4.784 11.94-4.917 13.666-.285 3.71.839 5.002.583 9.667-.333 6.083-1.128 5.464-1.25 8.583-.82 11.348-4.277 20.75-3.32 32.425.6 5.714-4.24 3.73-9.407 8.147l-9.25 6.75c-8.116 8.523-9.334 13.06-18.667 17.72-.353 3.664 7.195-1.96 9.084-1.974 3.87-1.88-2.293 1.181 5.833-2.412 3.314-4.261-.917-1.508 5.81-6.322 5.422-4.32 10.296-3.769 17.287-5.577-.833 2.474-1.002 8.907-.833 8.859-.06 6.028 1.646 4.066 2.43 10.236.897 4.2 1.76 11.494 1.736 15.93l2.167 18.167c-.005 12.135 4.199 18.964 5.833 30.975.759 8.143 8.088 16.679 10.74 24.221.415 5.59 3.711 9.631 6.832 14.224 12.051 17.729 25.076 36.191 43.859 46.475 5.012 1.634 10.327 7.943 15.693 5.633-13.724-3.91-17.589-14.932-23.896-23.13-12.062-18.543-23.976-43.465-34.92-62.014-.99-12.1-8.516-22.944-9.7-34.787 9.87-9.498 12.715-23.246 19.223-34.873 4.651 5.538 9.294 16.626 15.238 24.404 6.806 5.638 9.003 10.837 12.762 15.805 4.667 6.167 1.11 2.35 4.584 8 2.49 4.14 3.563 6.716 3.75 8.875.112 1.295 4.882 7.755 3 10.292-4.766 12.998-11.44 17.43-10 34.666 10.39-3.904 11.25-29.77 19.984-30.594Zm-66.494-96.883c1.413 4.16 3.193 3.287 3.976 7.511.134.046 2.883 5.466 3.087 5.478.79 2.225 3.052 4.905 1.51 6.138-3.982 13.489-2.394 15.952-13.044 27.144-1.659-.19-2.81-18.801-2.36-19.755.634-7.805-3.964-26.536 5.506-29.183l1.325 2.667Zm24.22-13.08c-.486 1.953-3.126 3.93-4.416 5.681-1.753 3.285-4.043 7.373-5.096 10.516-.284.364-2.227-2.541-2.28-2.474-2.58-2.343-4.853-3.788-6.184-7.198 4.774-3.431 9.429-5.116 14.956-6.795l3.02.27Zm51.359 31.226c-7.383 21.263-9.328 36.28-13.07 54.33-1.686-3.015-9.367-16.03-11.333-20.333l-9.333-10.104c-4.356-6.15-12.452-24.473-18-28.945-.502-.158.154-1.267.377-1.618 3.332-2.943 2.808-7.797 5.605-11.07 1.96-2.19 3.262-4.716 4.739-7.15 3.725-7.451 6.15-20.518 9.279-28.446 4-10.137 10.519 8.676 11.77 12.613 5.364 6.784 7.562 10.265 12.23 17.476 4.065 7.312 11.481 13.48 7.736 23.247Zm5.93 14.997c-.112-.09 3.768-7.165 3.656-7.255 1.633-3.961 1.012-11.772 3.398-15.412.635-.437 2.541-8.154 3.28-8.627 2.396 6.737 2.236 13.664 1.094 22.294l-11.427 9Zm90.059-44.13c4.845-10.421 3-22.564 7.636-33.028 4.274-8.486 7.64-18.572 7.947-27.955-.641-5.887.868-6.36 1.153-9.023 1.131 1.684 2.685 2.85 2.435 5.009.983 3.556 6.754 3.971 8.328 7.39-.024.018.244.108.22.126.28.317.248.583.447.957-1.936 19.813.434 30.862-.489 49.482-7.822 2.342-19.164 6.048-26.69 8.367-.318-.108-.817-1.068-.987-1.324Zm-23.81 84.631c-.498-18.932-.65-37.825-2.156-56.714 1.892-4.581 8.471-8.418 12.686-8.343-9.232 20.747-6.891 43.648-8.82 65.764-.103-.003-1.73 8.17-1.833 8.167l.122-8.874Zm9.998-10.143c2.13-4.53 1.636-11.027 3.063-18.15 1.611-8.048-1.587-12.958 3.06-20.354 1.399-4.47 1.057-14.438 2.964-18.854 5.403-6.896 12.181-5.593 22.174-8.17 3.678-.949 7.83-4.994 11.204-2.33-2.12 21.616-.218 46.047 4.47 66.597-13.91 10.529-31.793 9.723-46.935 17.611.207-3.53.12-12.678 0-16.35Zm65.643-90.775c-1.719 1.095-9.051 3.536-11.973 4.834-.239-11.168-.795-22.818-.254-33.875 4.114 4.384 8.753 8.55 11.999 11.876 4.229 4.324 10.293 7.406 11.823 13.693-2.477.175-9.03 2.924-11.595 3.472Zm31.069 10.53c2.174-1.465 11.956 10.313 13.486 11.43 3.542 2.582 7.263 3.464 10.778 5.124 5.863 4.221 7.804 6.216 14.324 8.847 1.66.96 2.862 3.92 1.406 5.514-4.315 4.917-8.925 10.319-10.217 16.729-1.147 12.487-8.572 23.211-8.766 36.068-.168 2.261-1.223 1.893-3.554.628-1.68-.911-3.585-.999-4.725-2.352-3.232-3.837-7.022-4.056-9.262-7.778l-3.242-3.114c-4.098-21.913-4.035-48.03-2.606-71.097h2.378Zm1.708-10.78c1.64-5.09 11.244-6.697 14.801-9.854 5.317-4.716 12.3-6.926 18.112-10.905 4.288-2.295 13.537-5.817 16.727-9.6 3.03 3.425 2.647 7.68 2.422 12.003 2.147 7.74 2.903 16.055 4.972 23.959-16.322 17.624-4.648 26.392-21.998 14-6.636-3.823-20.063-12.537-26.877-17.543l-8.159-2.06Zm57.238 33.123c.158-.112.521-3.037.679-3.15 1.566-5.935 1.599-9.437 4.93-14.264.501 2.626 1.444 9.132 2.26 11.547 1.469 6.018 4.448 10.26 3.848 15.78-3.188-.096-4.247-3.124-6.413-4.635-1.862-.838-2.194-2.692-4.637-4.194l-.667-1.084Zm25.02 43.396c-.502-2.965-2.404-12.578-2.591-16.296-.193-3.847 2.084-.219 7 6 5.063 4.726 5.253 2.494 6.333 5.208 1.137 4.376-5.287 9.535-8.66 12.79l-2.082-7.702Zm13.54 6.391c-3.194 9.983-1.71 20.363-4.551 30.3-4.806-5.552-4.11-13.603-5.939-20.343 5.16-1.604 7.046-6.419 10.49-9.957Zm46.987-45.156.005-.002c6.56 4.07 8.217 3.993 12.269 7.014 5.791 7.81 15.82 10.104 21.455 18.078-6.598 2.39-8.24 8.363-11.975 13.547-7.937 9.24-18.204 16.984-21.33 29.354-.597 1.554-1.206 1.769-2.27.553-11.505-8.484-22.725-23.563-31.772-34.194-.993-1.285-1.462-2.795-.663-4.786 8.684-11.483 14.725-25.216 25.353-35.271l8.928 5.707Z" class="tlp-grind"/>
</svg>