<?xml version="1.0" encoding="UTF-8"?>
<svg id="uuid-d1b7c007-3312-4d3d-a930-031bb3dc8312" data-name="shapes" xmlns="http://www.w3.org/2000/svg" width="200" height="200" viewBox="0 0 200 200">
  <defs>
    <style>
      .uuid-26b32edb-81ee-4222-9e1b-34a9fcfe6183 {
        fill: hsl(230, 10%, 20%);
        stroke-width: 0px;
      }
      @media (prefers-color-scheme: dark) {
        .uuid-26b32edb-81ee-4222-9e1b-34a9fcfe6183{
          fill: hsl(230, 10%, 90%);
          stroke-width: 0px;
        }
      }
    </style>
  </defs>
  <g id="uuid-6ed5622a-4c3b-43f1-a676-d5625b2c1797" data-name="curve-with-rectangle">
    <path class="uuid-26b32edb-81ee-4222-9e1b-34a9fcfe6183" d="M0,12v176c0,6.627417,5.372583,12,12,12h176c6.627417,0,12-5.372583,12-12V12c0-6.627417-5.372583-12-12-12H12C5.372583,0,0,5.372583,0,12ZM180,188H20c-4.418278,0-8-3.581722-8-8V18.25c0-3.4517797,2.7982203-6.25,6.25-6.25h163.5c3.4517797,0,6.25,2.7982203,6.25,6.25v161.75c0,4.418278-3.581722,8-8,8Z"/>
    <path class="uuid-26b32edb-81ee-4222-9e1b-34a9fcfe6183" d="M130,62h-28c-6.627417,0-12,5.372583-12,12v24c0,2.209139-1.790861,4-4,4h-12c-2.209139,0-4-1.790861-4-4v-52c0-2.209139,1.790861-4,4-4h28c4.418278,0,8-3.581722,8-8v-8c0-2.209139-1.790861-4-4-4h-48c-4.418278,0-8,3.581722-8,8v80c0,6.627417,5.372583,12,12,12h24c2.209139,0,4,1.790861,4,4v52c0,2.209139,1.790861,4,4,4h8c4.418278,0,8-3.581722,8-8v-48c0-2.209139,1.790861-4,4-4h24c6.627417,0,12-5.372583,12-12v-36c0-6.627417-5.372583-12-12-12h-8ZM126,102h-12c-2.209139,0-4-1.790861-4-4v-12c0-2.209139,1.790861-4,4-4h12c2.209139,0,4,1.790861,4,4v12c0,2.209139-1.790861,4-4,4Z"/>
  </g>
</svg>